<svg width="880" height="582" viewBox="0 0 880 582" fill="none" xmlns="http://www.w3.org/2000/svg">
<g clip-path="url(#clip0)">
<path d="M643 581.351C618.683 577.544 595.302 574.306 572.857 571.636L581.5 554.351C578.5 553.351 565.5 563.351 565.5 563.351L576.5 513.351C561.5 515.351 554.5 566.351 554.5 566.351L537.5 549.351L545.868 568.598C477.187 561.381 417.922 559.129 368.103 559.645L375.5 544.851C372.5 543.851 359.5 553.851 359.5 553.851L370.5 503.851C355.5 505.851 348.5 556.851 348.5 556.851L331.5 539.851L340.363 560.236C306.238 561.228 272.185 563.97 238.341 568.452C245.722 545.456 271.5 523.351 271.5 523.351C251.679 529.517 241.368 539.563 236.031 548.875C234.951 501.631 242.219 454.568 257.5 409.851C257.5 409.851 217.5 499.851 223.5 559.851L224.261 570.509C189.462 575.937 172 581.351 172 581.351H643Z" fill="#212121"/>
<path d="M734.672 457.486C732.298 457.486 729.978 456.783 728.005 455.464C726.032 454.145 724.494 452.271 723.585 450.079C722.677 447.886 722.439 445.473 722.902 443.145C723.365 440.817 724.508 438.679 726.187 437.001C727.865 435.323 730.003 434.18 732.331 433.717C734.659 433.254 737.071 433.492 739.264 434.4C741.457 435.308 743.331 436.846 744.65 438.82C745.968 440.793 746.672 443.113 746.672 445.486C746.668 448.668 745.403 451.718 743.153 453.968C740.903 456.217 737.853 457.483 734.672 457.486V457.486ZM734.672 435.486C732.694 435.486 730.761 436.073 729.116 437.172C727.472 438.27 726.19 439.832 725.433 441.66C724.676 443.487 724.478 445.497 724.864 447.437C725.25 449.377 726.202 451.159 727.601 452.557C728.999 453.956 730.781 454.908 732.721 455.294C734.661 455.68 736.671 455.482 738.499 454.725C740.326 453.968 741.888 452.687 742.987 451.042C744.085 449.398 744.672 447.464 744.672 445.486C744.669 442.835 743.614 440.293 741.74 438.419C739.865 436.544 737.323 435.489 734.672 435.486V435.486Z" fill="#212121"/>
<path d="M830.5 580.776H810.759V561.035H830.5V580.776ZM812.277 579.258H828.981V562.554H812.277V579.258Z" fill="#212121"/>
<path d="M162.144 580.856L148.679 566.42L163.115 552.955L176.58 567.391L162.144 580.856ZM150.825 566.495L162.218 578.71L174.434 567.316L163.04 555.101L150.825 566.495Z" fill="#212121"/>
<path d="M879 580H22V582H879V580Z" fill="#212121"/>
<path d="M553.475 133.76V199.44C553.473 200.047 553.232 200.628 552.803 201.057C552.373 201.487 551.792 201.728 551.185 201.73H549.555V543.88C549.555 553.348 545.793 562.428 539.098 569.123C532.403 575.818 523.323 579.58 513.855 579.58H300.065C295.378 579.58 290.736 578.656 286.405 576.861C282.075 575.067 278.14 572.437 274.826 569.122C271.512 565.807 268.883 561.872 267.09 557.541C265.297 553.209 264.374 548.568 264.375 543.88V213.73H263.195C262.767 213.731 262.356 213.562 262.052 213.26C261.749 212.958 261.577 212.548 261.575 212.12V174.74C261.575 174.527 261.617 174.317 261.698 174.12C261.78 173.923 261.899 173.745 262.05 173.594C262.2 173.444 262.379 173.325 262.575 173.243C262.772 173.162 262.982 173.12 263.195 173.12H264.375V159.04H263.185C262.736 159.038 262.305 158.858 261.988 158.54C261.672 158.221 261.494 157.789 261.495 157.34V120.47C261.496 120.022 261.675 119.593 261.991 119.276C262.308 118.96 262.737 118.781 263.185 118.78H264.375V99.56H263.165C262.968 99.5603 262.773 99.5216 262.591 99.4464C262.409 99.3711 262.243 99.2606 262.104 99.1212C261.964 98.9819 261.854 98.8164 261.779 98.6343C261.703 98.4522 261.665 98.2571 261.665 98.06V77.94C261.664 77.541 261.822 77.1579 262.103 76.8748C262.384 76.5917 262.766 76.4317 263.165 76.43H264.375V35.69C264.375 26.2245 268.136 17.1468 274.829 10.4537C281.522 3.76064 290.6 0.000344758 300.065 3.65276e-10H513.855C523.322 -4.27914e-05 532.401 3.7598 539.095 10.4527C545.79 17.1456 549.552 26.2235 549.555 35.69V131.47H551.185C551.792 131.472 552.373 131.713 552.803 132.142C553.232 132.572 553.473 133.153 553.475 133.76V133.76Z" fill="#212121"/>
<path d="M417.26 18.3068H382.52C381.117 18.3068 379.979 19.4448 379.979 20.8487V23.8513C379.979 25.2551 381.117 26.3932 382.52 26.3932H417.26C418.664 26.3932 419.802 25.2551 419.802 23.8513V20.8487C419.802 19.4448 418.664 18.3068 417.26 18.3068Z" fill="#E6E8EC"/>
<path d="M430.41 26.9366C432.943 26.9366 434.997 24.8831 434.997 22.35C434.997 19.8168 432.943 17.7633 430.41 17.7633C427.877 17.7633 425.823 19.8168 425.823 22.35C425.823 24.8831 427.877 26.9366 430.41 26.9366Z" fill="#E6E8EC"/>
<mask id="path-9-inside-1" fill="white">
<path d="M532.46 42.7506V546.841C532.463 550.118 531.753 553.357 530.378 556.333C529.003 559.308 526.998 561.948 524.5 564.071C520.402 567.563 515.194 569.481 509.81 569.481H305.16C301.519 569.486 297.93 568.611 294.7 566.931C293.941 566.542 293.206 566.108 292.5 565.631C289.424 563.555 286.905 560.757 285.163 557.481C283.421 554.205 282.51 550.551 282.51 546.841V42.7506C282.51 39.7761 283.095 36.8307 284.234 34.0826C285.372 31.3346 287.04 28.8376 289.143 26.7343C291.247 24.631 293.744 22.9627 296.492 21.8244C299.24 20.6862 302.185 20.1005 305.16 20.1006H335.79V24.0306C335.79 28.9769 337.755 33.7205 341.252 37.2181C344.75 40.7156 349.493 42.6805 354.44 42.6806H458.52C463.466 42.6806 468.21 40.7156 471.707 37.2181C475.205 33.7205 477.17 28.9769 477.17 24.0306V20.1006H509.81C512.784 20.0996 515.73 20.6848 518.479 21.8227C521.227 22.9607 523.724 24.629 525.828 26.7325C527.931 28.8359 529.6 31.3332 530.738 34.0817C531.876 36.8301 532.461 39.7759 532.46 42.7506Z"/>
</mask>
<path d="M532.46 42.7506V546.841C532.463 550.118 531.753 553.357 530.378 556.333C529.003 559.308 526.998 561.948 524.5 564.071C520.402 567.563 515.194 569.481 509.81 569.481H305.16C301.519 569.486 297.93 568.611 294.7 566.931C293.941 566.542 293.206 566.108 292.5 565.631C289.424 563.555 286.905 560.757 285.163 557.481C283.421 554.205 282.51 550.551 282.51 546.841V42.7506C282.51 39.7761 283.095 36.8307 284.234 34.0826C285.372 31.3346 287.04 28.8376 289.143 26.7343C291.247 24.631 293.744 22.9627 296.492 21.8244C299.24 20.6862 302.185 20.1005 305.16 20.1006H335.79V24.0306C335.79 28.9769 337.755 33.7205 341.252 37.2181C344.75 40.7156 349.493 42.6805 354.44 42.6806H458.52C463.466 42.6806 468.21 40.7156 471.707 37.2181C475.205 33.7205 477.17 28.9769 477.17 24.0306V20.1006H509.81C512.784 20.0996 515.73 20.6848 518.479 21.8227C521.227 22.9607 523.724 24.629 525.828 26.7325C527.931 28.8359 529.6 31.3332 530.738 34.0817C531.876 36.8301 532.461 39.7759 532.46 42.7506Z" fill="white" stroke="white" stroke-width="2" mask="url(#path-9-inside-1)"/>
<path d="M550.27 261.4V290.553C550.27 290.553 552.602 323.204 565.429 339.529C565.429 339.529 586.419 369.265 589.334 362.852L585.744 341.736L573.592 330.201L567.178 294.051L565.429 261.4H550.27Z" fill="#FFB8B8"/>
<path d="M679.124 524.941V546.514L661.633 552.928V527.856L679.124 524.941Z" fill="#FFB8B8"/>
<path d="M643.557 522.609L655.219 548.846L638.893 555.843L635.395 530.189L643.557 522.609Z" fill="#FFB8B8"/>
<path d="M672.711 321.455C672.711 321.455 696.033 531.938 687.288 532.521C678.542 533.104 661.633 544.182 661.633 536.602C661.633 529.023 648.223 430.486 648.223 430.486L635.396 379.76V449.727L648.806 529.023C648.806 529.023 635.979 545.931 626.65 536.019L606.826 458.473C606.826 458.473 580.588 340.696 581.755 331.367C581.755 331.367 641.809 280.058 672.711 321.455Z" fill="#00383F"/>
<path d="M668.047 547.68C668.047 547.68 672.711 537.768 683.206 544.182L691.952 554.677C691.952 554.677 714.5 573.351 698.5 577.351C682.009 581.473 672.128 577.087 672.128 577.087C672.128 577.087 669.213 575.338 666.881 575.338C664.548 575.338 659.301 571.257 659.301 570.091C659.301 568.925 661.05 548.263 661.05 548.263C661.711 547.942 662.453 547.825 663.18 547.929C663.908 548.033 664.587 548.353 665.131 548.847C666.881 550.596 668.047 547.68 668.047 547.68Z" fill="#00383F"/>
<path d="M633.646 544.182C633.646 544.182 644.725 535.436 649.972 545.348C649.972 545.348 653.276 546.514 653.665 545.348C654.053 544.182 656.969 543.599 656.969 550.013C656.969 556.426 660.135 572.423 657.22 573.006C654.304 573.589 651.389 575.338 651.972 577.67C652.555 580.003 648.806 580.331 635.396 579.748C621.985 579.165 621.402 573.918 621.402 573.918C621.402 573.918 621.402 566.338 624.901 562.257C628.399 558.175 633.646 544.182 633.646 544.182Z" fill="#00383F"/>
<path d="M612.073 162.281C612.073 162.281 609.157 183.854 627.815 191.433C646.473 199.013 586.418 224.084 580.588 209.508C574.757 194.932 581.754 190.267 581.754 190.267C581.754 190.267 587.584 184.437 582.337 168.694L612.073 162.281Z" fill="#FFB8B8"/>
<path d="M593.415 177.44C607.584 177.44 619.07 165.954 619.07 151.785C619.07 137.617 607.584 126.131 593.415 126.131C579.247 126.131 567.761 137.617 567.761 151.785C567.761 165.954 579.247 177.44 593.415 177.44Z" fill="#FFB8B8"/>
<path d="M623.151 198.43C623.151 198.43 605.659 207.759 588.751 200.762C571.842 193.765 572.425 224.084 572.425 224.084L581.171 246.824L641.809 240.993L637.728 206.01L623.151 198.43Z" fill="#F2F2F2"/>
<path d="M614.46 178.48C617.566 179.139 620.484 180.488 622.997 182.427C625.511 184.367 627.556 186.847 628.981 189.684L656.968 198.43L663.965 208.342L655.802 280.058C655.802 280.058 670.961 294.634 670.961 302.797C670.961 310.96 689.619 338.946 680.29 335.448C670.961 331.95 654.053 319.706 654.053 319.706C654.053 319.706 611.49 321.455 598.079 333.116C584.669 344.777 579.422 341.279 579.422 341.279C579.422 341.279 565.428 280.641 564.845 271.312C564.262 261.983 547.937 206.01 547.937 206.01L577.089 189.684L584.515 181.259L605.076 214.172L623.734 191.433C623.734 191.433 614.516 184.184 614.46 178.48Z" fill="#212121"/>
<path d="M672.71 253.237L676.209 271.895C676.209 271.895 691.951 330.201 689.619 350.024C689.619 350.024 691.368 394.337 681.456 389.089C671.544 383.842 676.792 351.774 676.792 351.774L662.798 294.051L655.219 260.234L672.71 253.237Z" fill="#FFB8B8"/>
<path d="M658.134 204.844L663.965 208.342C663.965 208.342 686.121 254.403 680.873 257.902C675.626 261.4 652.887 268.98 652.887 268.98L658.134 204.844Z" fill="#212121"/>
<path d="M561.93 206.01L548.228 205.718L545.021 211.257L549.103 267.814L570.093 272.478L561.93 206.01Z" fill="#212121"/>
<path d="M614.306 130.088L618.93 128.407C618.93 128.407 609.262 118.738 595.81 119.579L599.593 115.796C599.593 115.796 590.345 112.433 581.938 121.261C577.518 125.901 572.405 131.356 569.217 137.501H564.265L566.332 141.634L559.098 145.768L566.523 145.025C565.819 148.594 566.061 152.285 567.225 155.731L568.906 160.355C568.906 160.355 575.632 146.903 575.632 145.222V149.425C575.632 149.425 580.256 145.642 580.256 143.12L582.779 146.062L584.04 141.438L599.593 146.062L597.071 142.279L606.74 143.54L602.956 138.916C602.956 138.916 613.886 144.381 614.306 149.005C614.727 153.629 617.612 159.657 617.612 159.657L621.111 155.575C621.111 155.575 626.497 136.394 614.306 130.088Z" fill="#00383F"/>
<path d="M614.988 157.324C616.115 157.324 617.029 154.975 617.029 152.077C617.029 149.179 616.115 146.829 614.988 146.829C613.861 146.829 612.947 149.179 612.947 152.077C612.947 154.975 613.861 157.324 614.988 157.324Z" fill="#FFB8B8"/>
<path d="M41.6344 547.016C54.0628 570.065 80.4404 579.96 80.4404 579.96C80.4404 579.96 86.6675 552.484 74.2391 529.435C61.8106 506.386 35.4331 496.492 35.4331 496.492C35.4331 496.492 29.206 523.967 41.6344 547.016Z" fill="#212121"/>
<path d="M50.1765 539.433C72.6149 552.933 81.2567 579.747 81.2567 579.747C81.2567 579.747 53.5186 584.674 31.0802 571.174C8.64174 557.675 0 530.861 0 530.861C0 530.861 27.7381 525.934 50.1765 539.433Z" fill="#00BCD4"/>
<path d="M485.519 193.257C485.531 202.585 483.868 211.839 480.609 220.579C479.129 224.582 477.313 228.453 475.181 232.15C468.328 244.109 458.439 254.046 446.513 260.956C434.588 267.867 421.049 271.506 407.266 271.506C393.483 271.506 379.944 267.867 368.019 260.956C356.094 254.046 346.204 244.109 339.351 232.15C338.657 230.948 338 229.727 337.378 228.488C332.058 217.937 329.197 206.317 329.01 194.502C328.822 182.687 331.313 170.982 336.295 160.267C341.276 149.552 348.62 140.103 357.774 132.631C366.929 125.159 377.657 119.858 389.153 117.123C400.649 114.389 412.615 114.294 424.153 116.845C435.691 119.396 446.502 124.526 455.774 131.852C465.047 139.177 472.54 148.507 477.691 159.142C482.843 169.777 485.519 181.44 485.519 193.257V193.257Z" fill="#F1F1F1"/>
<path d="M411.334 206.468C419.597 206.468 426.295 199.77 426.295 191.507C426.295 183.245 419.597 176.547 411.334 176.547C403.072 176.547 396.374 183.245 396.374 191.507C396.374 199.77 403.072 206.468 411.334 206.468Z" fill="#F50157"/>
<path d="M337.377 228.488C343.968 221.365 352.78 210.056 361.044 218.227C365.192 222.082 371.683 231.634 377.897 225.389L426.419 176.867C427.333 175.965 428.417 175.255 429.609 174.778C430.801 174.301 432.076 174.068 433.359 174.091C434.643 174.114 435.909 174.393 437.083 174.912C438.257 175.431 439.315 176.18 440.196 177.114L480.608 220.579C479.128 224.582 477.312 228.453 475.181 232.15H339.351L337.377 228.488Z" fill="#00BCD4"/>
<path d="M443.984 352.165C443.449 352.166 442.936 352.38 442.557 352.759C442.179 353.138 441.967 353.651 441.967 354.187C441.967 354.722 442.179 355.235 442.557 355.614C442.936 355.993 443.449 356.207 443.984 356.208H465.198C465.734 356.208 466.248 355.995 466.628 355.616C467.007 355.237 467.22 354.723 467.22 354.187C467.22 353.65 467.007 353.136 466.628 352.757C466.248 352.378 465.734 352.165 465.198 352.165H443.984Z" fill="#00BCD4"/>
<path d="M348.407 322.471C347.871 322.471 347.357 322.684 346.978 323.064C346.599 323.443 346.386 323.957 346.386 324.493C346.386 325.029 346.599 325.543 346.978 325.923C347.357 326.302 347.871 326.515 348.407 326.515H466.125C466.661 326.515 467.176 326.302 467.555 325.923C467.934 325.543 468.147 325.029 468.147 324.493C468.147 323.957 467.934 323.443 467.555 323.064C467.176 322.684 466.661 322.471 466.125 322.471H348.407Z" fill="#E5E5E5"/>
<path d="M348.408 337.318C347.872 337.319 347.359 337.533 346.981 337.912C346.603 338.291 346.391 338.804 346.391 339.34C346.391 339.875 346.603 340.389 346.981 340.768C347.359 341.147 347.872 341.36 348.408 341.361H466.126C466.392 341.362 466.655 341.31 466.901 341.209C467.147 341.107 467.37 340.959 467.558 340.771C467.746 340.583 467.896 340.36 467.997 340.114C468.099 339.869 468.152 339.606 468.152 339.34C468.152 339.074 468.099 338.811 467.997 338.565C467.896 338.319 467.746 338.096 467.558 337.909C467.37 337.721 467.147 337.572 466.901 337.471C466.655 337.369 466.392 337.318 466.126 337.318H348.408Z" fill="#E5E5E5"/>
<path d="M443.983 447.432C443.446 447.432 442.932 447.645 442.553 448.024C442.174 448.403 441.961 448.917 441.961 449.453C441.961 449.989 442.174 450.504 442.553 450.883C442.932 451.262 443.446 451.475 443.983 451.475H465.197C465.733 451.475 466.247 451.262 466.626 450.883C467.005 450.504 467.218 449.989 467.218 449.453C467.218 448.917 467.005 448.403 466.626 448.024C466.247 447.645 465.733 447.432 465.197 447.432H443.983Z" fill="#00BCD4"/>
<path d="M348.407 417.738C347.871 417.738 347.357 417.951 346.978 418.33C346.599 418.709 346.386 419.223 346.386 419.76C346.386 420.296 346.599 420.81 346.978 421.189C347.357 421.568 347.871 421.781 348.407 421.781H466.125C466.391 421.782 466.655 421.73 466.9 421.629C467.146 421.527 467.37 421.379 467.558 421.191C467.746 421.003 467.895 420.78 467.997 420.534C468.099 420.289 468.151 420.026 468.151 419.76C468.151 419.494 468.099 419.231 467.997 418.985C467.895 418.739 467.746 418.516 467.558 418.329C467.37 418.141 467.146 417.992 466.9 417.891C466.655 417.789 466.391 417.737 466.125 417.738H348.407Z" fill="#E5E5E5"/>
<path d="M348.407 432.585C347.871 432.585 347.357 432.798 346.978 433.177C346.599 433.556 346.386 434.07 346.386 434.606C346.386 435.142 346.599 435.657 346.978 436.036C347.357 436.415 347.871 436.628 348.407 436.628H466.125C466.661 436.628 467.176 436.415 467.555 436.036C467.934 435.657 468.147 435.142 468.147 434.606C468.147 434.07 467.934 433.556 467.555 433.177C467.176 432.798 466.661 432.585 466.125 432.585H348.407Z" fill="#E5E5E5"/>
</g>
</svg>
